<?xml version="1.0" encoding="utf-8"?>
<!-- Generator: Adobe Illustrator 21.0.0, SVG Export Plug-In . SVG Version: 6.00 Build 0)  -->
<svg version="1.1" id="Слой_1" xmlns="http://www.w3.org/2000/svg" xmlns:xlink="http://www.w3.org/1999/xlink" x="0px" y="0px"
	 viewBox="0 0 57.9 58" style="enable-background:new 0 0 57.9 58;" xml:space="preserve">
<style type="text/css">
	.st0{fill:#171717;}
</style>
<g>
	<path class="st0" d="M20,29c-2.7-2.7-5.4-5.4-8-8c-3.3-3.3-6.7-6.7-10-10C0,9-0.5,6.4,0.6,4c1.1-2.4,3.6-4,6.1-3.9
		C8.5,0.2,9.9,1,11.2,2.2c5.6,5.6,11.3,11.3,16.9,16.9c0.3,0.3,0.5,0.5,0.9,0.9c0.5-0.5,0.5-0.5,0.8-0.8c5.6-5.7,11.3-11.3,17-17
		C49.1-0.1,52-0.6,54.6,1c3.8,2.3,4.3,6.9,1.2,10.2C51.9,15.1,48,19,44.1,22.8c-2,2-4.1,4-6.2,6.1c0.3,0.3,0.5,0.6,0.8,0.8
		c5.7,5.7,11.4,11.4,17.1,17.1c2.3,2.3,2.7,5.4,1,7.9c-2.3,3.6-6.9,4.1-10,1C41.2,50.3,35.6,44.6,29.9,39c-0.3-0.3-0.5-0.6-0.9-1
		c-0.4,0.4-0.7,0.6-0.9,0.9c-5.6,5.6-11.3,11.3-16.9,16.9c-2.5,2.5-5.5,2.8-8.2,1c-3.3-2.2-4-6.5-1.3-9.4c3.5-3.7,7.2-7.3,10.7-10.9
		C14.9,34.1,17.4,31.6,20,29z"/>
</g>
</svg>
