<?xml version="1.0" encoding="utf-8"?>
<!-- Generator: Adobe Illustrator 21.0.0, SVG Export Plug-In . SVG Version: 6.00 Build 0)  -->
<svg version="1.1" id="Слой_1" xmlns="http://www.w3.org/2000/svg" xmlns:xlink="http://www.w3.org/1999/xlink" x="0px" y="0px"
	 viewBox="0 0 32 56.8" style="enable-background:new 0 0 32 56.8;" xml:space="preserve">
<style type="text/css">
	.st0{fill:#35CF8F;}
</style>
<g>
	<path class="st0" d="M4.3,2.8c0.1-0.1,0.1-0.1,0.1-0.4C4.6,0,4.6,0,6.9,0c6.2,0,12.3,0,18.5,0c2.1,0,2.1,0,2.1,2c0,0.2,0,0.4,0,0.8
		c1.1,0,2.2-0.1,3.3,0C31.2,2.9,32,3,32,3.6c0,0.6-0.8,0.6-1.2,0.6c-1.3,0-1.4,0.1-1.5,0.2C28.5,5,27.5,6,26.6,6.4
		c-0.2,0.1-0.1,0.7-0.1,1.1c0,8.5,0,17,0,25.6c0,0.8,0,1.4-1,1.6c-0.2,0-0.5,0.6-0.5,0.9c0,6,0,11.9,0,17.9c1,0.4,2.1,0.8,3.1,1.3
		c0.7,0.3,1.2,0.8,0.9,1.6c-0.1,0.3-0.9,0.5-1.4,0.5c-7.7,0-15.4,0-23,0c-0.8,0-1.4-0.2-1.5-0.6c-0.1-0.6,0.5-1.1,1-1.4
		c0.9-0.6,2-0.9,3.1-1.3c0-6,0-11.9,0-17.9c0-0.3-0.3-1-0.5-1c-1-0.1-1-0.8-1-1.6c0-8.3,0-16.6,0-25c0-0.5,0-1.8,0-1.8
		c-0.5-0.7-1.5-1.4-2.3-2C2.9,4.2,2.2,4.2,1.5,4.2C0.9,4.2,0,4.4,0,3.6c0-0.9,0.9-0.7,1.6-0.7C2.5,2.8,3.4,2.8,4.3,2.8z M25.1,21.5
		c0-4.9,0-9.7,0-14.4c0-0.9-0.2-0.9-1.2-0.9c-5.4,0-10.7,0-16.1,0c-0.6,0-1,0-1,0.3c-0.1,5,0,10,0,14.9C13,21.5,19,21.5,25.1,21.5z
		 M23.6,44.1c0-2.8,0-5.7,0-8.5c0-0.8-0.2-1.1-1-1.1c-4.4,0-8.9,0-13.3,0c-0.8,0-1.1,0.3-1.1,1.1c0,5.6,0,11.1,0,16.7
		c0,0.9,0.3,1.2,1.2,1.2c4.4,0,8.7,0,13.1,0c1,0,1.2-0.4,1.2-1.3C23.6,49.5,23.6,46.8,23.6,44.1z M22.9,33.2c0-1.2,0-2.2,0-3.3
		c0-0.2-0.5-0.7-0.7-0.7c-4.1,0-8.3,0-12.4,0c-0.2,0-0.7,0.3-0.7,0.5c-0.1,1.1,0,2.3,0,3.4C13.7,33.2,18.2,33.2,22.9,33.2z M7.1,23
		c0.3,2.2,1,2.8,3,2.8c4,0,7.9,0,11.9,0c1.7,0,2.7-1,2.8-2.9C18.9,23,13.1,23,7.1,23z M5.7,2.8c6.9,0,13.7,0,20.4,0
		c0.1-1.5,0.1-1.6-1.3-1.6c-6,0-11.9,0-17.9,0c-0.4,0-1.1,0-1.2,0.1C5.7,1.3,5.7,1.7,5.7,1.9C5.7,2.2,5.7,2.4,5.7,2.8z M5.7,55.5
		C5.7,55.6,5.7,55.4,5.7,55.5c7,0.1,14,0.1,21,0.1c0-0.1,0,0,0-0.1c-0.8-0.2-2.1-0.8-3.2-0.8c-4.9-0.1-9.8-0.1-14.6,0
		C7.8,54.7,6.4,55.3,5.7,55.5z M5.1,4.3C5.3,4.5,6,5,6.3,5c6.4,0,13.2,0,19.7,0c0.4,0,1-0.5,1.4-0.7c0-0.1-0.1-0.1-0.5-0.1
		C19.6,4.3,12.3,4.3,5.1,4.3z M16,27.2c-2,0-4.4,0-6.5,0c-0.3,0-0.6,0.1-0.6,0.5c0,0.3,0.3,0.4,0.6,0.4c4,0,8.7,0,12.7,0
		c0.3,0,0.6-0.1,0.6-0.5c0-0.2-0.3-0.4-0.6-0.4C20.2,27.2,18,27.2,16,27.2z M7.9,27.2c-0.1,0-0.8-0.7-1.1-1.3c0,2.1-0.1,4.8,0,6.9
		c0,0.2,0.9,0.4,1,0.4C7.8,31.5,7.9,27.6,7.9,27.2z M25.1,25.9c-0.3,0.7-0.5,0.9-0.8,1.2c0,0.6,0,4.3,0,6.2c0.4-0.1,0.8-0.1,0.8-0.4
		C25.1,30.9,25.1,27.9,25.1,25.9z"/>
	<path class="st0" d="M18,11.7c-1.1,0-1.8-0.6-1.8-1.6c0-1.1,0.7-1.7,1.8-1.7c1,0,1.8,0.7,1.8,1.7C19.8,11,19,11.7,18,11.7z
		 M18.7,10.1c-0.1-0.5-0.5-0.7-0.7-0.7c-0.5,0-0.8,0.4-0.8,0.7c0,0.5,0.4,0.7,0.8,0.7C18.4,10.8,18.7,10.5,18.7,10.1z"/>
	<path class="st0" d="M18,15.8c-1.1,0-1.8-0.6-1.8-1.6c0-1.1,0.7-1.7,1.8-1.7c1,0,1.8,0.7,1.8,1.7C19.8,15.1,19,15.8,18,15.8z
		 M17.2,14.2c0,0.5,0.5,0.7,0.7,0.7c0.3,0,0.7-0.1,0.8-0.7c0-0.5-0.3-0.8-0.7-0.8C17.4,13.4,17.2,13.8,17.2,14.2z"/>
	<path class="st0" d="M18,19.9c-1.1,0-1.8-0.6-1.8-1.6c0-1.1,0.7-1.7,1.8-1.7c1,0,1.8,0.7,1.7,1.7C19.8,19.2,19,19.9,18,19.9z
		 M18.8,18.2c0-0.5-0.4-0.7-0.8-0.7c-0.5,0-0.8,0.3-0.8,0.7c0.1,0.6,0.5,0.7,0.8,0.7C18.5,18.9,18.8,18.5,18.8,18.2z"/>
	<path class="st0" d="M22.6,9.3c0.8,0,1.6-0.1,1.6,0.7c0,0.7-1.1,0.6-1.7,0.6c-1,0-2,0.1-2-0.6C20.5,9.3,21.2,9.3,22.6,9.3z"/>
	<path class="st0" d="M22.6,13.4c1,0.1,1.6-0.1,1.6,0.7c0,0.7-1.1,0.6-1.7,0.6c-1,0-2,0.1-2-0.6C20.5,13.3,21.1,13.4,22.6,13.4z"/>
	<path class="st0" d="M22.6,17.5c0.7,0,1.6-0.2,1.6,0.7c0,0.7-1,0.6-1.7,0.6c-1.2,0-2,0.1-2-0.7C20.5,17.5,21.1,17.5,22.6,17.5z"/>
	<path class="st0" d="M15.6,39.8c-1,0-1.8-0.7-1.8-1.6c0-1,0.7-1.7,1.7-1.7c1.2,0,1.9,0.6,1.8,1.7C17.4,39.2,16.7,39.8,15.6,39.8z
		 M15.6,38.9c0.5,0,0.8-0.3,0.7-0.8c0-0.5-0.5-0.7-0.8-0.7c-0.5,0-0.7,0.3-0.7,0.8C14.9,38.6,15.2,38.9,15.6,38.9z"/>
	<path class="st0" d="M15.6,43.9c-1,0-1.8-0.7-1.8-1.6c0-1,0.7-1.7,1.7-1.7c1.2,0,1.9,0.6,1.9,1.7C17.4,43.3,16.7,43.9,15.6,43.9z
		 M16.5,42.3c-0.1-0.5-0.4-0.8-0.9-0.8c-0.4,0-0.8,0.3-0.8,0.8c0,0.3,0.3,0.6,0.8,0.6C15.9,43,16.5,42.9,16.5,42.3z"/>
	<path class="st0" d="M15.6,48c-1,0-1.8-0.7-1.8-1.7c0-1,0.8-1.7,1.8-1.7c1.1,0,1.8,0.7,1.8,1.8C17.4,47.4,16.7,48,15.6,48z
		 M16.4,46.3c-0.1-0.6-0.5-0.7-0.8-0.7c-0.4,0-0.8,0.3-0.8,0.8c0,0.5,0.5,0.7,0.8,0.7C16,47.1,16.4,46.8,16.4,46.3z"/>
	<path class="st0" d="M15.5,52c-1,0-1.8-0.8-1.7-1.7c0-1,0.8-1.7,1.8-1.6c1.1,0,1.8,0.7,1.8,1.8C17.3,51.5,16.7,52.1,15.5,52z
		 M16.5,50.4c0-0.5-0.3-0.8-0.9-0.8c-0.3,0-0.8,0.2-0.8,0.9c0,0.4,0.6,0.7,0.8,0.7C15.9,51.2,16.5,51,16.5,50.4z"/>
	<path class="st0" d="M11.2,38.8c-0.9,0-1.9,0.2-1.9-0.7c0-0.7,0.8-0.6,1.7-0.6c1.3,0,2-0.1,2,0.7C13,38.9,11.7,38.8,11.2,38.8z"/>
	<path class="st0" d="M9.3,42.1c0-0.6,0.3-0.7,1.7-0.7c1.3,0,2-0.1,2,0.7c0,0.7-1.1,0.6-1.9,0.7C10.3,42.8,9.3,42.9,9.3,42.1z"/>
	<path class="st0" d="M11.1,46.9c-1.4,0-1.8,0-1.8-0.7c0-0.7,0.4-0.7,1.8-0.7c1.7,0,2,0.1,2,0.8C13,46.8,12.7,46.9,11.1,46.9z"/>
	<path class="st0" d="M11.1,51c-1.2,0-1.8,0-1.8-0.7c0-0.7,0.3-0.7,1.8-0.7c1.5,0,2,0,2,0.8C13,50.9,12.5,51,11.1,51z"/>
</g>
</svg>
