<?xml version="1.0" encoding="utf-8"?>
<!-- Generator: Adobe Illustrator 21.0.0, SVG Export Plug-In . SVG Version: 6.00 Build 0)  -->
<svg version="1.1" id="Слой_1" xmlns="http://www.w3.org/2000/svg" xmlns:xlink="http://www.w3.org/1999/xlink" x="0px" y="0px"
	 viewBox="0 0 35.7 56.8" style="enable-background:new 0 0 35.7 56.8;" xml:space="preserve">
<style type="text/css">
	.st0{fill:#35CF8F;}
</style>
<g>
	<path class="st0" d="M6.8,11.5c-2-3.3-4-6.5-5.9-9.8C0.7,1.3,0.3,0.6,0.5,0.3C0.7-0.1,1.4,0,1.8,0C12.5,0,23.3,0,34,0
		c0.4,0,1.2,0,1.3,0.3c0.2,0.4-0.2,0.9-0.4,1.3c-1.9,3.3-3.9,6.5-5.9,9.7c0,0.1,0,0.2,0,0.3c1.8,2.2,1.7,2.9-0.1,5.1
		c-0.7,0.8-1.4,1.8-2,2.6c1.8,1,1.8,2.6,0.1,3.8c0.8,1.1,1.7,2.4,2.5,3.6c1.2,2,1.1,2.8-0.3,4.6c1.1,1.9,2.3,3.9,3.4,5.8
		c1.4,2.4,2.6,4.8,3.1,7.6c0.5,3.4-0.4,6.2-2.7,8.7c-0.7,0.7-1.3,1.6-1.7,2.5c-0.4,0.7-0.8,1-1.6,1c-7.8,0-15.6,0-23.4,0
		c-0.8,0-1.2-0.3-1.6-1c-0.8-1.4-1.8-2.6-2.8-3.8c-1.6-2-1.9-4.3-1.7-6.8c0.3-3,1.6-5.6,3.1-8.1c1.2-2,2.3-3.9,3.4-5.8
		c-1.5-2-1.6-2.7-0.2-4.8C7,25.4,8,24.1,8.7,23.1c-2-1.1-1.8-2.9,0-3.8c-0.6-0.8-1.3-1.8-2-2.6C4.9,14.5,4.9,13.8,6.8,11.5z
		 M34.4,46.4c0-1-0.3-3.3-1.1-5c-1.6-3.2-3.1-5.6-4.8-8.7c-0.5-1-1.2-1.3-2.3-1.3c-4.8,0-9.7,0-14.5,0c-4.4,0-3.2-0.7-5.5,3.2
		c-1.5,2.5-2.8,4.6-3.9,7.3c-0.9,2.2-0.9,3.8-0.9,4.6C12.7,46.5,23,46.4,34.4,46.4z M2.2,1.3c2,3.2,3.8,6.2,5.8,9.2
		C8.1,10.8,8.7,11,9.1,11c5.8,0,11.7,0,17.5,0c0.5,0,1.1-0.4,1.4-0.8c1-1.4,1.9-2.9,2.8-4.4c0.9-1.4,1.7-2.9,2.6-4.5
		C23,1.3,12.7,1.3,2.2,1.3z M34.2,47.8c-11,0-21.8,0-32.8,0c0.2,2.1,1.3,3.5,2.6,4.8c0.6,0.7,1.1,1.6,1.7,2.3
		c0.3,0.3,0.7,0.5,1.1,0.5c7.4,0,14.7,0,22.1,0c0.4,0,0.9-0.3,1.2-0.6c0.7-0.8,1.1-1.6,1.8-2.4C33,51.1,34,49.8,34.2,47.8z
		 M17.9,30.2c2.9,0,5.8,0,8.7,0c0.8,0,1.7-0.1,2.1-0.8c0.4-0.6,0.3-1.2-0.5-2.4c-0.8-1.2-1.5-2.4-2.4-3.6c-0.2-0.3-0.8-0.5-1.2-0.5
		c-4.6,0-9.1,0-13.7,0c-0.4,0-0.9,0.1-1.1,0.4c-1,1.4-2,2.8-2.8,4.3c-0.8,1.5,0.2,2.6,1.6,2.6C11.8,30.2,14.8,30.2,17.9,30.2z
		 M17.9,12.2c-3,0-6,0-9,0c-1.1,0-1.7,0.7-1.9,1.5c-0.2,0.5,0.1,1.3,0.5,1.8c0.7,1.1,1.5,1.9,2.2,2.9c0.6,0.8,1,1,1.6,1
		c2.3,0,9.2,0,12.8,0c1,0,1.8-0.6,2.3-1.2c0.9-1.1,1.2-1.8,1.9-2.6c0.5-0.6,1-1.2,0.6-2c-0.5-0.8-1-1.4-2.1-1.4
		C23.7,12.2,20.8,12.2,17.9,12.2z M17.9,20.6c-2.6,0-5.3,0-7.9,0c-0.4,0-1.3,0-1.2,0.8c0.1,0.6,0.8,0.5,1.2,0.5c5.3,0,10.6,0,15.8,0
		c0.4,0,1.2,0,1.2-0.6c0.1-0.5-0.8-0.6-1.2-0.6C23.1,20.5,20.5,20.6,17.9,20.6z"/>
</g>
</svg>
