<?xml version="1.0" encoding="utf-8"?>
<!-- Generator: Adobe Illustrator 21.0.0, SVG Export Plug-In . SVG Version: 6.00 Build 0)  -->
<svg version="1.1" id="Слой_1" xmlns="http://www.w3.org/2000/svg" xmlns:xlink="http://www.w3.org/1999/xlink" x="0px" y="0px"
	 viewBox="0 0 35.8 56.8" style="enable-background:new 0 0 35.8 56.8;" xml:space="preserve">
<style type="text/css">
	.st0{fill:#35CF8F;}
</style>
<g>
	<path class="st0" d="M11.2,31c0.1-2,0.4-2.2-1.1-2.3c-0.1,0-1.1,0-1.2,0c-2.7,0.2-2.6-0.3-1.7-2.7c1-2.7,3.1-4,6-4.3
		c-0.1-0.5-0.4-1-0.6-1.4c-0.1-0.2-0.5,0-0.9,0.1C8.8,20.7,6.2,20,4,17.9c-2.6-2.4-3.6-6.8-1.9-10.2C3,5.9,4,4.4,5.5,2.5
		c0.3-0.4,0.7-0.8,0.3-1.5C5.4,0.4,5.8,0,6.5,0C6.7,0,6.9,0,7,0c9,0,18,0,27,0c1.4,0,1.5,0.2,1,1.5c-2,5.6-4,11.1-6,16.7
		c-0.4,1.1-0.8,2.2-1.2,3.3c1,0.3,2,0.5,2.9,0.9c2.1,1,3.1,2.9,3.6,5.1c0.2,0.8-0.1,1.2-1,1.2c-0.4,0-2.3,0-2.7,0c-0.4,0-1,0-1,0.2
		c-0.3,1.4,0.1,2.8,0.2,3.6c1.4,4.1,2.8,8.3,4.1,12.8c0.6,1.9,1.1,3.7,1.7,5.6c0.3,0.9,0.2,1.7-0.6,2.2c-1.7,1.2-3.5,2.3-5.3,3.5
		c-0.3,0.2-0.7,0.1-1,0.2c-5.4,0-10.8,0-16.2,0c-0.9,0-1.8-0.4-2.5-0.8c-1.4-0.8-2.7-1.7-3.9-2.8c-0.5-0.4-0.8-1.2-0.7-1.8
		c0-0.4,0.3-0.9,0.2-0.9C5.4,50.3,5,50,4.9,49.8c-1.9-1.9-3.6-3.9-4.4-6.6C-1,38.6,1.1,33.8,5.6,32C7.3,31.3,9.2,31.3,11.2,31z
		 M12.5,28.8c0,1.3,0.1,2.7-0.3,3.9c-1.7,6-3.5,12-5.3,17.9c-0.3,0.9-0.1,1.2,0.8,1.2c8.6,0,17.1,0,25.7,0c0.6,0,1-0.5,0.8-1
		C33,47,31.7,43,30.7,39.6c-0.7-2.6-3.1-6.6-2.4-10.8L12.5,28.8z M7.3,1.2C9.5,7.3,11.9,14,14,20c0-1.1-0.2-8.7,2-13.5
		c0.6-1.4,2.3-4.6,4.3-4.6c2,0.1,3.6,2.5,4.3,4.3c1.7,4.9,2.3,11.6,2.5,13.3c2.2-6.1,4.3-12.1,6.5-18.3H7.3z M33,27.5
		c-0.5-2.8-2.6-4.5-5.5-4.7c-4.6-0.2-9.3-0.2-13.9,0C10.7,23,8.6,24.6,8,27.5L33,27.5z M26,20.3c0.3,1.1,0.2,1.1,0.3,1.1
		c-0.5-3.4-1.6-13.2-3-15.5c-0.5-0.8-1.7-3-3-2.9c-0.9,0-1.9,1.3-2.7,2.8c-2.6,5-2.4,14.5-2.5,15.8c0.2-1.3,0.4-2.3,0.5-2.9
		c0.5-2.5,1.3-4.3,2.3-5.4c1.1-1.2,2.6-1.9,3.9-1.2c0.8,0.4,1.5,1.1,2,1.9C25.3,16.9,25.5,18.5,26,20.3z M6.7,46.6l3.6-12.2
		c-2.2,0.1-4.1,0.1-5.7,1.7C1.4,39.4,3.6,44.3,6.7,46.6z M7.3,5.2C5.1,7,2.9,11.3,5,14.6c1.3,2.1,4.6,3.6,6.7,2.8L7.3,5.2z M8.4,53
		c1.2,1.2,3.3,2.4,4.1,2.4c5.3,0.1,10.6,0.1,15.9,0c1.1,0,2.6-1.1,4.5-2.4H8.4z M25,21.6c-0.5-2.1-1.2-4.8-2.3-6.9
		c-1-1.9-2.9-2.2-4.2-0.3c-1.4,2.2-1.8,4.7-2.2,7.2c0.4,0,0.7,0,1,0C19.8,21.6,22.2,21.6,25,21.6z M6.9,3.7C6.8,3.5,6.7,3.4,6.7,3.2
		C3.9,5.8,0.8,10.5,3.1,15C4.9,18.5,9,20,12.2,19c-0.1-0.2-0.1-0.5-0.2-0.5c-0.1,0-0.5,0.1-0.8,0.1c-1.6,0-6.3-0.3-8-5.4
		C3.1,12.8,3,12,3,11.5c0.2-2.8,1.5-5.1,3.3-7.1C6.5,4.1,6.7,3.9,6.9,3.7z M6.1,48.8c0-0.1,0.2-0.5,0.2-0.8c0-0.1-0.7-0.6-1-0.9
		c-0.6-0.6-1.4-1.6-2.1-2.6c-1.4-2.1-1.7-4.3-1.1-6.6c0.6-2.3,3.2-4.4,5.9-4.7c0.9-0.1,1.8-0.2,2.7-0.3c0-0.1,0.1-0.4,0.2-0.7
		c-0.1,0-0.6,0.1-0.9,0.1c-0.6,0.1-0.9,0.1-1.4,0.2c-3.5,0.2-6.1,2.3-7,4.8C0.2,41.9,2.3,45.7,6.1,48.8z"/>
	<path class="st0" d="M20.5,49.7c-3.3,0-6.6,0-9.9,0c-0.3,0-0.7,0.1-0.9-0.1c-0.2-0.1-0.4-0.4-0.5-0.7c0-0.2,0.2-0.5,0.4-0.6
		c0.3-0.1,0.6-0.1,0.9-0.1c6.7,0,13.3,0,20,0c0.2,0,0.3,0,0.5,0c0.5,0.1,0.9,0.3,0.9,0.7c0,0.5-0.6,0.6-0.9,0.7
		c-0.9,0.1-1.8,0-2.6,0C25.8,49.7,23.1,49.7,20.5,49.7z"/>
	<path class="st0" d="M20.5,45.6c-3,0-5.9,0-8.9,0c-0.4,0-1.2-0.1-1.2-0.7c0-0.8,0.7-0.7,1.3-0.7c5.9,0,11.8,0,17.7,0
		c0.2,0,0.6,0,0.7,0.1c0.4,0.1,0.5,0.2,0.6,0.7c-0.1,0.6-0.6,0.6-0.9,0.7c-1.8,0.1-3.5,0-5.3,0C23.2,45.6,21.8,45.6,20.5,45.6z"/>
	<path class="st0" d="M20.5,41.7c-2.6,0-5,0-7.8,0c-0.7,0-1.1-0.2-1.1-0.7c0-0.7,0.6-0.7,1.2-0.7c5.2,0,10.4,0,15.6,0
		c0.5,0,1.2-0.1,1.2,0.7c0,0.9-0.7,0.7-1.3,0.7C25.6,41.8,23.1,41.7,20.5,41.7z"/>
	<path class="st0" d="M20.5,37.7c-2.2,0-4.4,0-6.6,0c-0.9,0-1.1-0.2-1.1-0.6c0-0.7,0.6-0.7,1.2-0.7c4.4,0,8.8,0,13.2,0
		c0.5,0,1.2-0.1,1.2,0.7c0,0.9-0.7,0.7-1.3,0.7C24.8,37.7,22.7,37.7,20.5,37.7z"/>
</g>
</svg>
